<svg xmlns="http://www.w3.org/2000/svg" viewBox="2 1 199 784.5" width="199mm" height="784.5mm">
  <path d="M 201 213 C 200.83333333333334 193, 200.99986117859106 172.99444714364253, 200.5 153
C 199.51869051658412 113.74762066336487, 197.1079226828483 70.99698723381931, 172.5 38
C 148.21731208970272 5.439123029374102, 103.13500191086425 -8.254000764345697, 65 7
C 52.67750553938852 11.928997784244594, 41.527402853393816 20.271439643429964, 32.5 30
C 15.007226509300093 48.851435509395046, 7.200375137572021 78.11618942802271, 4 102.5
C 2.2643391113240914 115.72408296134026, 3.2222607884088372 129.16435269546974, 3 142.5
C 2.555582555048858 169.16504669706853, 2.0606106387340666 195.83131895701075, 2 222.5
C 1.7272734316276246 342.4996900838452, 1.8571429583737182 462.50008503392326, 2 582.5
C 2.027386895519593 605.504992236458, 1.3945840063665784 656.2253376407461, 5.5 682.5
C 9.912018084216243 710.736915738984, 15.73613590495054 734.872221975476, 36 756.5
C 63.138250895637455 785.46486393669, 110.74111020392195 795.1479370263303, 146 775
C 172.2212551426249 760.0164256327857, 185.30168824576404 735.6454698689353, 193.5 708
C 199.70414481471136 687.0790465550431, 198.9773708638284 653.9051654468631, 199.5 633
C 199.83333333333334 619.6666666666666, 200.45236637753789 606.3374142893929, 200.5 593
C 200.95237845892729 466.3340315003587, 200.83333333333334 339.6666666666667, 201 213 Z" fill="none" stroke="black" stroke-width="0.5" />
  <circle cx="121.5" cy="162.5" r="4" fill="none" stroke="red" stroke-width="0.2" />
  <circle cx="80" cy="162.5" r="4" fill="none" stroke="red" stroke-width="0.2" />
  <circle cx="80" cy="215.5" r="4" fill="none" stroke="red" stroke-width="0.2" />
  <circle cx="122" cy="215.5" r="4" fill="none" stroke="red" stroke-width="0.2" />
  <circle cx="121" cy="570" r="4" fill="none" stroke="red" stroke-width="0.2" />
  <circle cx="80.5" cy="570" r="4" fill="none" stroke="red" stroke-width="0.2" />
  <circle cx="80.5" cy="623" r="4" fill="none" stroke="red" stroke-width="0.2" />
  <circle cx="122" cy="623" r="4" fill="none" stroke="red" stroke-width="0.2" />
</svg>